<mxfile host="Electron" modified="2024-04-22T13:52:16.552Z" agent="Mozilla/5.0 (Windows NT 10.0; Win64; x64) AppleWebKit/537.36 (KHTML, like Gecko) draw.io/21.7.5 Chrome/114.0.5735.289 Electron/25.8.1 Safari/537.36" etag="nnGjEaeM83uYqVSaxgKG" version="21.7.5" type="device">
  <diagram id="R2lEEEUBdFMjLlhIrx00" name="Page-1">
    <mxGraphModel dx="858" dy="1616" grid="1" gridSize="10" guides="1" tooltips="1" connect="1" arrows="1" fold="1" page="1" pageScale="1" pageWidth="850" pageHeight="1100" math="0" shadow="0" extFonts="Permanent Marker^https://fonts.googleapis.com/css?family=Permanent+Marker">
      <root>
        <mxCell id="0" />
        <mxCell id="1" parent="0" />
        <mxCell id="RzlHyZZrszImgV0QMhNT-6" value="Actor" style="swimlane;childLayout=stackLayout;horizontal=1;startSize=50;horizontalStack=0;rounded=1;fontSize=14;fontStyle=0;strokeWidth=2;resizeParent=0;resizeLast=1;shadow=0;dashed=0;align=center;arcSize=4;whiteSpace=wrap;html=1;" vertex="1" parent="1">
          <mxGeometry x="280" y="-90" width="160" height="120" as="geometry" />
        </mxCell>
        <mxCell id="RzlHyZZrszImgV0QMhNT-7" value="actor_id&lt;br&gt;name&lt;br&gt;contact&lt;br&gt;email" style="align=left;strokeColor=none;fillColor=none;spacingLeft=4;fontSize=12;verticalAlign=top;resizable=0;rotatable=0;part=1;html=1;" vertex="1" parent="RzlHyZZrszImgV0QMhNT-6">
          <mxGeometry y="50" width="160" height="70" as="geometry" />
        </mxCell>
        <mxCell id="RzlHyZZrszImgV0QMhNT-9" value="Director" style="swimlane;childLayout=stackLayout;horizontal=1;startSize=50;horizontalStack=0;rounded=1;fontSize=14;fontStyle=0;strokeWidth=2;resizeParent=0;resizeLast=1;shadow=0;dashed=0;align=center;arcSize=4;whiteSpace=wrap;html=1;" vertex="1" parent="1">
          <mxGeometry x="60" y="80" width="160" height="120" as="geometry" />
        </mxCell>
        <mxCell id="RzlHyZZrszImgV0QMhNT-10" value="director_id&lt;br&gt;name&lt;br&gt;contact&lt;br&gt;email" style="align=left;strokeColor=none;fillColor=none;spacingLeft=4;fontSize=12;verticalAlign=top;resizable=0;rotatable=0;part=1;html=1;" vertex="1" parent="RzlHyZZrszImgV0QMhNT-9">
          <mxGeometry y="50" width="160" height="70" as="geometry" />
        </mxCell>
        <mxCell id="RzlHyZZrszImgV0QMhNT-11" value="Series" style="swimlane;childLayout=stackLayout;horizontal=1;startSize=50;horizontalStack=0;rounded=1;fontSize=14;fontStyle=0;strokeWidth=2;resizeParent=0;resizeLast=1;shadow=0;dashed=0;align=center;arcSize=4;whiteSpace=wrap;html=1;" vertex="1" parent="1">
          <mxGeometry x="500" y="-190" width="160" height="120" as="geometry" />
        </mxCell>
        <mxCell id="RzlHyZZrszImgV0QMhNT-12" value="serie_id&lt;br&gt;title&lt;br&gt;genre&lt;br&gt;description" style="align=left;strokeColor=none;fillColor=none;spacingLeft=4;fontSize=12;verticalAlign=top;resizable=0;rotatable=0;part=1;html=1;" vertex="1" parent="RzlHyZZrszImgV0QMhNT-11">
          <mxGeometry y="50" width="160" height="70" as="geometry" />
        </mxCell>
        <mxCell id="RzlHyZZrszImgV0QMhNT-13" value="Episodes" style="swimlane;childLayout=stackLayout;horizontal=1;startSize=50;horizontalStack=0;rounded=1;fontSize=14;fontStyle=0;strokeWidth=2;resizeParent=0;resizeLast=1;shadow=0;dashed=0;align=center;arcSize=4;whiteSpace=wrap;html=1;" vertex="1" parent="1">
          <mxGeometry x="500" y="10" width="160" height="120" as="geometry" />
        </mxCell>
        <mxCell id="RzlHyZZrszImgV0QMhNT-14" value="episode_id(PK)&lt;br&gt;series_id(FK)&lt;br&gt;title&lt;br&gt;" style="align=left;strokeColor=none;fillColor=none;spacingLeft=4;fontSize=12;verticalAlign=top;resizable=0;rotatable=0;part=1;html=1;" vertex="1" parent="RzlHyZZrszImgV0QMhNT-13">
          <mxGeometry y="50" width="160" height="70" as="geometry" />
        </mxCell>
        <mxCell id="RzlHyZZrszImgV0QMhNT-15" value="Transmission" style="swimlane;childLayout=stackLayout;horizontal=1;startSize=50;horizontalStack=0;rounded=1;fontSize=14;fontStyle=0;strokeWidth=2;resizeParent=0;resizeLast=1;shadow=0;dashed=0;align=center;arcSize=4;whiteSpace=wrap;html=1;" vertex="1" parent="1">
          <mxGeometry x="280" y="120" width="160" height="120" as="geometry" />
        </mxCell>
        <mxCell id="RzlHyZZrszImgV0QMhNT-16" value="transmission_date&lt;br&gt;transmission_time" style="align=left;strokeColor=none;fillColor=none;spacingLeft=4;fontSize=12;verticalAlign=top;resizable=0;rotatable=0;part=1;html=1;" vertex="1" parent="RzlHyZZrszImgV0QMhNT-15">
          <mxGeometry y="50" width="160" height="70" as="geometry" />
        </mxCell>
        <mxCell id="RzlHyZZrszImgV0QMhNT-20" value="" style="edgeStyle=entityRelationEdgeStyle;fontSize=12;html=1;endArrow=ERoneToMany;startArrow=ERoneToMany;rounded=0;exitX=1;exitY=0.5;exitDx=0;exitDy=0;" edge="1" parent="1" source="RzlHyZZrszImgV0QMhNT-7" target="RzlHyZZrszImgV0QMhNT-13">
          <mxGeometry width="100" height="100" relative="1" as="geometry">
            <mxPoint x="350" y="50" as="sourcePoint" />
            <mxPoint x="450" y="-50" as="targetPoint" />
          </mxGeometry>
        </mxCell>
        <mxCell id="RzlHyZZrszImgV0QMhNT-21" value="" style="edgeStyle=entityRelationEdgeStyle;fontSize=12;html=1;endArrow=ERoneToMany;startArrow=ERoneToMany;rounded=0;entryX=0;entryY=0.25;entryDx=0;entryDy=0;exitX=1;exitY=0;exitDx=0;exitDy=0;" edge="1" parent="1" source="RzlHyZZrszImgV0QMhNT-7" target="RzlHyZZrszImgV0QMhNT-12">
          <mxGeometry width="100" height="100" relative="1" as="geometry">
            <mxPoint x="350" y="-10" as="sourcePoint" />
            <mxPoint x="450" y="-110" as="targetPoint" />
          </mxGeometry>
        </mxCell>
        <mxCell id="RzlHyZZrszImgV0QMhNT-23" value="" style="edgeStyle=entityRelationEdgeStyle;fontSize=12;html=1;endArrow=ERzeroToOne;startArrow=ERmandOne;rounded=0;exitX=1;exitY=0;exitDx=0;exitDy=0;" edge="1" parent="1" source="RzlHyZZrszImgV0QMhNT-14" target="RzlHyZZrszImgV0QMhNT-12">
          <mxGeometry width="100" height="100" relative="1" as="geometry">
            <mxPoint x="680" y="240" as="sourcePoint" />
            <mxPoint x="780" y="140" as="targetPoint" />
          </mxGeometry>
        </mxCell>
        <mxCell id="RzlHyZZrszImgV0QMhNT-24" value="" style="edgeStyle=entityRelationEdgeStyle;fontSize=12;html=1;endArrow=ERzeroToOne;startArrow=ERmandOne;rounded=0;exitX=1.006;exitY=0.129;exitDx=0;exitDy=0;exitPerimeter=0;" edge="1" parent="1" source="RzlHyZZrszImgV0QMhNT-16" target="RzlHyZZrszImgV0QMhNT-14">
          <mxGeometry width="100" height="100" relative="1" as="geometry">
            <mxPoint x="470" y="450" as="sourcePoint" />
            <mxPoint x="570" y="350" as="targetPoint" />
          </mxGeometry>
        </mxCell>
        <mxCell id="RzlHyZZrszImgV0QMhNT-25" value="" style="edgeStyle=entityRelationEdgeStyle;fontSize=12;html=1;endArrow=ERoneToMany;startArrow=ERoneToMany;rounded=0;exitX=1;exitY=0.25;exitDx=0;exitDy=0;" edge="1" parent="1" source="RzlHyZZrszImgV0QMhNT-9">
          <mxGeometry width="100" height="100" relative="1" as="geometry">
            <mxPoint x="220" y="210" as="sourcePoint" />
            <mxPoint x="280" y="-40" as="targetPoint" />
            <Array as="points">
              <mxPoint x="240" y="180" />
            </Array>
          </mxGeometry>
        </mxCell>
      </root>
    </mxGraphModel>
  </diagram>
</mxfile>
